<?xml version="1.0" encoding="utf-8"?>
<!-- Generator: Adobe Illustrator 24.3.0, SVG Export Plug-In . SVG Version: 6.00 Build 0)  -->
<svg version="1.1" id="Layer_4" xmlns="http://www.w3.org/2000/svg" xmlns:xlink="http://www.w3.org/1999/xlink" x="0px" y="0px"
	 viewBox="0 0 253.3 202.6" style="enable-background:new 0 0 253.3 202.6;" xml:space="preserve">
<style type="text/css">
	.st0{clip-path:url(#SVGID_2_);}
	.st1{clip-path:url(#SVGID_4_);}
	.st2{opacity:0.85;}
	.st3{fill:#3D504A;}
	.st4{fill:#3E4E49;}
	.st5{fill:#3E4F49;}
	.st6{fill:#561721;}
	.st7{fill:#3F4E4A;}
	.st8{fill:#3F4F4A;}
	.st9{fill:#424F4A;}
	.st10{fill:#42514C;}
	.st11{fill:#40514C;}
	.st12{fill:#3F514A;}
	.st13{fill:#3F504A;}
	.st14{fill:#41524D;}
	.st15{fill:#404F4B;}
	.st16{fill:#41504B;}
	.st17{fill:#44524D;}
	.st18{fill:#44524F;}
	.st19{fill:#45534E;}
	.st20{fill:#465550;}
	.st21{fill:#475551;}
	.st22{fill:#47524E;}
	.st23{fill:#44514D;}
	.st24{fill:#4A5551;}
	.st25{fill:#66716D;}
	.st26{fill:#8B6B72;}
	.st27{fill:#4F7F73;}
	.st28{fill:#485652;}
	.st29{fill:#525E5A;}
	.st30{fill:#626A6A;}
	.st31{fill:#656E6B;}
	.st32{fill:#979A98;}
	.st33{fill:#495754;}
	.st34{fill:#46544F;}
	.st35{fill:#42534D;}
	.st36{fill:#535D59;}
	.st37{fill:#575F5D;}
	.st38{fill:#545A57;}
	.st39{fill:#5C6764;}
	.st40{fill:#646C6A;}
	.st41{fill:#4A5653;}
	.st42{fill:#676F6E;}
	.st43{fill:#4C4F4E;}
	.st44{fill:#5B6561;}
	.st45{fill:#525A57;}
	.st46{fill:#646F6C;}
	.st47{fill:#565B58;}
</style>
<g>
	<g>
		<defs>
			<rect id="SVGID_1_" x="47" y="1.7" width="308.7" height="208.3"/>
		</defs>
		<clipPath id="SVGID_2_">
			<use xlink:href="#SVGID_1_"  style="overflow:visible;"/>
		</clipPath>
		<g class="st0">
		</g>
	</g>
</g>
<g>
	<g>
		<defs>
			<rect id="SVGID_3_" x="-12.8" y="74.1" width="192.2" height="63.6"/>
		</defs>
		<clipPath id="SVGID_4_">
			<use xlink:href="#SVGID_3_"  style="overflow:visible;"/>
		</clipPath>
		<g transform="matrix(1 0 0 1 0 0)" class="st1">
		</g>
	</g>
</g>
<g class="st2">
	<path class="st3" d="M159.9,145.1c0.1-0.1,0.3-0.2,0.4-0.3c0.9-0.6,1.7-1.4,2.6-1.8l0,0c0.4-0.4,0.8-1,1.4-1.1
		c0.7-0.2,1.2-0.7,1.7-1.2c1-1.3,2.4-2.1,3.5-3.2c0.4-0.3,0.8-0.6,1-1.1c0.1-0.1,0.2-0.2,0.4-0.3c0.6-0.4,1.2-0.9,1.6-1.6
		c1.3-1.5,2.8-2.6,3.8-4.3c0.3-0.5,0.9-0.9,1.5-0.4c0.3,0.3,0.7,0.3,1,0.4c0.9,0.2,1,0.5,0.5,1.4c-0.8,1.2-1.8,2.1-2.6,3.3
		c-1.1,1.5-2.5,2.8-3.8,4.1c-1.2,1.1-2.2,2.4-3.7,3.2v0c-0.5,0.7-1.3,1.1-1.9,1.7c-1.2,0.5-2.1,1.6-3.2,2.3
		c-0.6,0.6-1.3,1.3-2.1,1.4l0,0c-1.1,0.9-2.4,1.7-3.6,2.3c-0.6,0.3-1,0.9-1.7,1c-0.4,0.1-0.8,0.2-1.1,0.5c-1.2,1-2.6,1.3-4,1.9
		c-1.8,0.8-3.7,1.7-5.7,2l0,0c-2.4,1-5,1.6-7.6,2.2c-2.8,0.6-5.7,0.8-8.6,1.1c-2.1,0.2-4.2,0.2-6.3,0.1c-1.4,0-2.7,0-4.1-0.4
		c-0.6-0.3-1.3-0.1-1.9-0.2c-1.8-0.2-3.4-0.7-5.2-0.9c-1.6-0.2-3.1-0.7-4.6-1.2c-1.6,0-3-0.9-4.6-1.4c-3.5-1.1-6.7-2.9-9.9-4.5
		c-0.9-0.4-1.8-0.9-2.6-1.6c-0.7-0.7-1.7-1.1-2.5-1.5c-1.4-0.8-2.6-1.9-3.8-3l0,0c-2.2-1.4-4.1-3.2-5.9-5.2l0,0
		c-1.2-0.9-2.1-2.2-3.2-3.3c-2-1.9-3.4-4.3-5.2-6.3c-0.6-0.6-0.9-1.4-1.3-2.2l0,0c-0.2-0.2-0.4-0.4-0.5-0.7c-0.5-1.1-0.4-1,0.5-1.3
		c1.6-0.4,2.6,0.4,3.3,1.7c0.2,0.4,0.3,0.8,0.7,1c0.6,0.4,1.1,1,1.3,1.7c0.2,0.2,0.4,0.4,0.6,0.7c0.4,0.1,0.6,0.4,0.8,0.7
		c1.9,2.6,4.2,4.9,6.6,7.1c0.8,0.7,1.5,1.5,2.4,2.1c0.6,0.9,1.5,1.5,2.3,2.2c0.8,0.4,1.4,1,2.3,1.3c1.8,1.3,3.7,2.3,5.5,3.6h0
		c1.1,0.6,2.3,1,3.4,1.6c1.4,0.8,2.9,1.3,4.3,2c0.4,0.2,1,0.1,1.2,0.6l0,0c2.1,0.3,4.1,1.2,6,2c2.4,0.4,4.9,1.1,7.4,1.3
		c3.4,0.4,6.8,0.9,10.2,0.4c0.7-0.1,1.4,0.1,2.2,0.1c1.4,0.1,2.7-0.6,4.1-0.5c1.9,0.2,3.7-0.8,5.6-0.8c0.2,0,0.3-0.2,0.4-0.3
		c0.2-0.1,0.4-0.2,0.7-0.3c1.6-0.2,3.1-0.6,4.7-1.2c1.4-0.6,2.9-0.9,4.4-1.4c1.1-0.4,2-1.2,3.2-1.3l0,0
		C154.7,147.8,157.4,146.7,159.9,145.1z"/>
	<path class="st4" d="M103.8,185.9c0.1,0.1,0.2,0.3,0.3,0.4c0.2,0.2,0.4,0.1,0.6-0.1c0.6-0.3,1.1-0.5,1.6-1.1
		c0.1-0.1,0.2-0.2,0.4-0.3c0.3-0.1,0.6-0.2,0.8-0.4c0.1-0.1,0.2-0.1,0.3-0.2c0.3-0.2,0.6-0.3,0.8,0.1l0,0c0.2,0.1,0.3,0.4,0.4,0.6
		c0.6,1.7,0.6,1.7,2,0.8c0.2-0.5,0.4-0.9,0.8-1.2c0.1-0.1,0.1-0.2,0.2-0.3c0.1-0.3,0.3-0.6,0.6-0.7c0.1-0.1,0.2-0.2,0.3-0.3
		c0.2-0.3,0.4-0.5,0.6-0.6c0.1-0.1,0.2-0.2,0.3-0.3c0.4-0.7,0.8-1.3,1.6-1.6l0,0c0.2-0.4,0.6-0.5,0.9-0.7l-0.1-0.1l0.1,0.1
		c0.2-0.4,0.6-0.4,0.9-0.5c1.7-1.3,4.1-1.6,5.7,0.2c0.9,1.1,1.7,2.1,2.2,3.5c0.2,0.6-0.4,1.8-1,1.9c-0.4-0.3-0.7-0.7-0.9-1.1
		c-1.8-2.8-4.1-3.3-6.7-1.4c-1.5,1.1-2.7,2.5-3.9,3.9c-0.4,0.4-0.2,0.6,0.2,0.7c1.4,0.5,2.8,0.6,4.2,0.2c1.4-0.4,2.9-0.3,4.2-1
		c0.6-0.3,1.3-0.6,1.8-1c0.4-0.2,0.7-0.6,1.2-0.3c0.1,0.4,0.7,0.7,0.1,1.2c-0.3,0.2-0.3,0.6-0.1,0.8c0.2,0.3,0.6,0.2,0.9,0.1
		c0.8-0.4,1.6-0.8,2.3-1.3c0.3-0.2,0.5-0.4,0.8-0.1c0.2,0.3-0.1,0.4-0.1,0.7c-0.3,1.2-1.5,1.4-2.2,2.2c-0.8,0.8-1.8,0.8-2.8,1.2
		c-1.3,0.9-2.6,1.4-4.1,0.8c-1.1,0-2.1,0-3.2,0.2c-1.8,0.3-3.5-0.2-5.3-1c-1.3-0.6-1.5-1.8-1.9-2.9c-0.1-0.4-0.3-0.6-0.6-0.4
		c-1.1,0.8-2.3,1.3-3.2,2.4c-0.5,0.7,0,1.4-0.4,2c-0.5-0.2-0.3-0.6-0.3-0.9c-0.1-0.5-0.1-1.1-1-0.6c-1.1,0.6-2.4,0.7-3.6,0.2
		c-0.4-0.2-0.4-0.6-0.6-0.8c-0.2-0.3,0-0.7-0.4-0.8c-0.4-1.2-0.1-2.2,0.7-3c0.2-0.2,0.4-0.4,0.6-0.6c0.2-0.8,0.7-1,1.3-1.1
		c0.2,0,0.4,0,0.6,0.1c0.4,0.2,0.9,0.3,1.1,0.9c0,0.3,0.4,0.3,0.4,0.5C103.4,185,103.7,185.3,103.8,185.9z"/>
	<path class="st4" d="M174.3,190.5c0.5,0.7,0,1.5,0.3,2.2c1.1,2.5,3.2,3.4,5.7,1.6c0.7-0.5,1.3-1,1.9-1.6c0.9-1,1.1-1.9,0.5-3.3
		c-0.3-0.7-0.3-1.6-0.3-2.2c0-2.2-0.7-4.3-0.8-6.5c-0.1-1.9-0.8-3.8-0.9-5.8c-0.2-2-0.7-4-0.8-6c0-0.9-0.6-1.6-0.4-2.6
		c0.1-0.7,0.1-1.4,0.4-2.1c-0.1-0.7,0.1-1.2,0.7-1.4l0,0c0.8-0.3,1.2,0,1.5,0.7c0.1,0.1,0.1,0.1,0.2,0.2c1.3,0.7,2,1.9,2.9,3.1
		c0.1,0.1,0.1,0.1,0.2,0.2c1.1,1.2,2.2,2.4,2.9,3.9c0.3,0.5,0.5,1,0.9,1.4c0.3,0.6,0.4,1.2,0.7,1.8c0.3,1,0.6,2.1,0.7,3.2
		c0,0.4,0,0.7,0.1,1c0.1,0.3-0.1,0.6-0.2,0.9c0,0.2,0,0.5,0,0.7c0.1,1.2-0.1,2.4-0.4,3.5c0,0.1,0,0.2,0,0.2c0.1,0.1,0.1,0.2-0.1,0.2
		c-0.1,0-0.1,0-0.1,0c-0.2,0.2-0.4,0.1-0.5-0.1c-0.3-0.5-0.2-1-0.2-1.6c0-1.4,0.3-2.7-0.1-4.1l0,0c-0.7-0.8-0.2-1.9-0.7-2.8
		c0.1-0.6-0.8-0.8-0.6-1.4c-1.2-1.6-2.3-3.3-3.2-5l0,0c-1.1-0.8-2-1.9-3.2-3.1c0,1.7,0.6,3.1,0.3,4.5l0,0c0.3,1.1-0.1,2.3,0.4,3.3
		c0,0.1,0,0.1,0,0.2c0.2,0.4,0.2,0.8,0,1.2c-0.1,0.3-0.2,0.6,0.2,0.7c0,0,0.1,0.1,0.1,0.1c-0.1,1.8,0.7,3.4,0.8,5.1
		c0,0.1,0,0.1,0,0.2c0.1,0.1,0.1,0.2,0,0.2c0,0.1,0,0.2,0,0.2c0.5,1.1,0.4,2.2,0.3,3.3c0,0.1,0,0.2,0,0.3c0.1,0.1,0.4,0.2,0.4,0.5
		c0,0.1,0,0.3,0.1,0.4c0.2,0.7,0.3,1.5,0.3,2.2c0,0.4,0.1,0.8,0.3,1.1c0,0.2,0,0.5,0,0.7c0.6,0.3,1.2-0.1,1.7,0.2c0.5,0,1,0,1.5,0
		c1.3,0.4,2,2,1.6,3.7c-0.1,0.3-0.1,0.5-0.3,0.8c-0.1,0.1-0.2,0.3-0.3,0.4c-0.1,1-0.7,1.3-1.6,1.3c-1.2-0.1-2.2-0.7-2.7-1.9
		c-0.1-0.2-0.1-0.3-0.2-0.5c-0.3-0.2-0.3-0.5-0.4-0.7c-0.1,0-0.3,0-0.4,0c-0.6,0.6-1.2,1-1.8,1.4c-0.2,0.2-0.4,0.3-0.6,0.5
		c-0.5,0.5-0.8,1.2-1.6,1.4c-0.2,0.1-0.5-0.1-0.6,0.3c0,0.1-0.1,0.2-0.3,0.2l0,0c-0.4,0.3-0.8,0.5-1.3,0.3c-0.1,0-0.1,0-0.2,0
		c-0.2,0.1-0.3-0.1-0.4-0.3c-0.7-0.1-1.3-0.5-1.8-1c-0.3-0.5-0.6-0.9-0.8-1.4v0c-0.3-0.2-0.1-0.6-0.2-0.8c0-0.9-0.1-1.8-0.1-2.7
		c-0.1-0.3-0.2-0.6-0.1-1C173.7,190.3,174,190.3,174.3,190.5z"/>
	<path class="st4" d="M145.3,171.5c0.2-0.1,0.4-0.2,0.6-0.3c1-0.7,2.1-0.9,3.3-1.1c0.1,0,0.1,0,0.2-0.1c0.3-0.4,0.8-0.2,1.2-0.4
		l0.1,0.1l0.1,0c0.3,0,0.4-0.2,0.7-0.3c0.1,0,0.3,0,0.4-0.1c0.3-0.2,0.6-0.2,0.9-0.4l-0.1,0l0.1,0.1c0.3-0.6,0.8-0.6,1.3-0.6
		c0.4-0.1,0.8-0.2,1.1-0.3c0.5-0.1,0.9-0.3,1.5-0.2c0.7,0.1,1.3-0.4,1.9-0.4c0.5-0.5,1.1-0.7,1.8-0.7c0.6,0,1.3,0,1.8-0.6
		c0.1-0.1,0.2-0.1,0.3-0.1c0.6,0.1,1.2-0.3,1.8-0.5c0.1,0,0.2,0,0.3-0.1c0.2,0,0.4-0.1,0.6-0.1c0.1,0,0.3-0.1,0.4-0.1
		c0.3,0,0.6-0.4,0.9-0.2c0.1,0,0.1,0,0.2,0c0.8-0.5,1.8-0.4,2.6-0.8c0.6-0.5,1.3-0.7,2.1-0.6c0.1,0,0.3,0,0.4-0.1
		c0.3-0.2,0.6-0.3,0.9-0.4c0.2-0.1,0.4-0.1,0.6,0c0.1,0,0.3,0,0.4,0c0.5-0.4,1.1-0.5,1.7-0.4c0.2-0.3,0.6-0.2,0.9-0.2
		c0.1,0,0.1,0.1,0.1,0.1c0,0.1,0,0.1-0.1,0.1c-0.6,1.1-1.4,1.7-2.5,1.9c-1.1,0.1-2.2,0.6-3.3,0.9c-1.2,0.3-2.4,0.6-3.5,1
		c-2.4,0.9-4.8,1.3-7.2,2.2c-1.1,0.4-2.3,0.5-3.4,0.9c-1.9,0.7-3.8,1.1-5.7,1.7c-0.9,0.3-2,0.6-2.9,0.9c-1.1,0.4-2.3,0.8-3.4,1.3
		c-1.3,0.5-2.7,1-4,1.7c-0.4-0.6,0.3-0.4,0.4-0.7c0.4-0.8,1.3-0.9,1.6-1.7C143.1,171.9,144.2,171.8,145.3,171.5z"/>
	<path class="st4" d="M126.6,160.3c1.8,1.4,3.4,3.1,4.7,5.1c1.2,1.7,2.1,3.5,2.5,5.5c0.3,1.6,0.9,3.2,0.5,4.8
		c-0.3,1.2-0.2,2.5-0.4,3.7c-0.5,0-0.4-0.4-0.4-0.6c0-1.1,0-2.1,0-3.2c0-2.7-1.1-5.1-2.4-7.3c-0.9-1.6-2.2-2.8-3.3-4.2
		c0,0-0.1-0.1-0.1-0.1c-0.5-0.2-0.8-0.9-1.3-0.7c-0.5,0.3,0,0.9,0.1,1.4c0.3,1.9,0.4,3.8,0.9,5.6c0.4,1.9,0.6,3.8,0.9,5.8
		c0.3,1.7,0.5,3.4,0.4,5.2c-0.1,1,0,2,0,2.9c-0.3,0.1-0.5,0-0.5-0.2c0.1-1.4-0.2-2.8-0.4-4.1c-0.4-2.1-0.4-4.4-1-6.5
		c-0.2-0.6-0.3-1.4-0.3-2.1c0-1.8-0.8-3.3-0.9-5c-0.1-1.4-0.7-2.8,0.1-4.2c0.1-0.1,0-0.3,0-0.5l0,0c0.2-0.5,0.1-1.1,0.8-1.2
		C126.6,160.4,126.6,160.3,126.6,160.3z"/>
	<path class="st4" d="M148.6,192.2c-0.6-0.7-1.3-1.4-1.1-2.6c0.1-0.7-0.3-0.4-0.6-0.1c-0.8,0.9-1.7,1.8-2.5,2.7
		c-1.1,1.1-2.3,1.8-3.8,1.6c-1.7-0.3-3-1.2-3.9-2.7c-0.7-1.1-1-1.3-1.9-0.4c-1.1,1-2.1,2.1-3.1,3.2c-0.4-0.9,0.3-1.5,0.6-2
		c1-1.5,2.3-2.9,3.8-3.9c0.4-0.3,0.6-0.3,0.9,0.3c1.3,2.5,3.7,3.7,6.1,2.9c1.6-0.5,2.7-1.9,3.8-3.1c0.3-0.3,0.7-0.6,1.1-0.9
		c0.2,0.1,0.1,0.4,0.1,0.7c0,1.8,1.6,2.8,3.1,2c0.4-0.2,1-0.3,1.3-0.7c0.6,0,0.3,0.5,0.3,0.7c-0.5,1.4-1.6,2.2-2.9,2.8
		c-0.5,0.2-0.6-0.6-1.1-0.4C148.7,192.2,148.6,192.2,148.6,192.2z"/>
	<path class="st4" d="M66.2,192.9c0-0.2-0.1-0.5,0-0.7c1.1-2.1,2.3-4.2,4.3-5.5c1.3-0.8,1.8-0.6,2.5,0.8c1.4,3.1,3.1,3.1,5.8,2.9
		c0.5,0,1-0.5,1.4-0.9c0.4-0.4,0.7-0.8,1.1-1.2c1-1.1,1-1.1,1.6,0.3c0.6,1.4,1.9,1.8,3.1,1.1c0.3-0.1,0.5-0.3,0.8-0.4
		c0.2-0.1,0.3,0,0.3,0.3c-0.5,1-0.8,2.1-1.9,2.6c-1.2,0.6-2.6-0.2-2.9-1.6c-0.1-0.3,0-0.8-0.4-1c-0.2-0.1-0.6-0.2-0.7,0.1
		c-0.1,0.7-0.8,0.8-1.1,1.3c-2,2.9-4.2,2.3-6.3,0.7c-0.7-0.5-1.3-1.5-1.7-2.5c-0.3-0.9-1.3-0.9-2-0.5c-1.6,1-2.5,2.6-3.5,4.2
		C66.4,193,66.3,193,66.2,192.9z"/>
	<path class="st5" d="M87.2,196.7c-0.1-0.8-0.1-1.5,0.1-2.3c0.4,0.1,0.6,0.1,0.8,0.6c0.6,2.1,3.2,3.3,5.3,2.6c2.2-0.7,4.2-1.7,6.1-3
		c1.1-0.8,2.1-1.6,3.2-2.4c0.2-0.2,0.4-0.4,0.6-0.5c0.3-0.1,0.5-0.6,0.8-0.3c0.4,0.4-0.2,0.6-0.3,0.8c-0.3,0.6-0.7,1.2-1.1,1.8
		c-1.1,1.1-2.3,2.2-3.7,2.9c-0.3,0.2-0.6,0.4-0.9,0.7c-0.8,1.1-2.1,1.4-3.2,1.9l0,0c-1.3,0.3-2.4,1.4-3.9,0.8c-0.1,0-0.3,0-0.4-0.1
		c-0.6-0.1-1.2-0.2-1.5-0.9c-0.1-0.1-0.2-0.2-0.3-0.3C87.8,198.4,86.9,197.9,87.2,196.7z"/>
	<path class="st6" d="M132.8,152.1c-0.2,0.1-0.3,0.2-0.4,0.4c-0.2,0.4-0.5,0.8-0.9,1c-0.1,0.1-0.3,0.1-0.4,0.2
		c-0.3-0.3-0.5-0.5-0.4-0.9c0-0.1-0.1-0.1-0.1-0.2c-0.1-0.1-0.3-0.2-0.3-0.4c-0.3-1.3-1-1.8-2.3-1.8c-1.3-0.1-1.8-2.3-1.1-3.9
		c0.1-0.2,0.1-0.4,0.2-0.7c0.1-1,0.4-1.8,1.3-2.1c0.1-0.1,0.3-0.2,0.4-0.3c0.2-0.3,0.4-0.2,0.7-0.2c0.1,0,0.3,0,0.4,0
		c0.3,0,0.5,0,0.6,0.3l0,0c0.2,0.1,0.4,0.2,0.4,0.5c0,0.1,0.1,0.1,0.1,0.2c0.4,0.4,0.6,0.8,0.4,1.4c0,0.1,0,0.2,0,0.3
		c0.3,1.5,1.2,2.9,1.1,4.5l0,0C133,150.9,133.5,151.5,132.8,152.1z"/>
	<path class="st7" d="M122.8,163c-0.6,1.6-1.9,2.1-3.2,2.4c-1.5,0.3-2.9,1-4.3,1.3c-1.5,0.3-3,1-4.5,1.5c-0.1,0.1-0.2,0.2-0.3,0.3
		c-0.1,0-0.1,0-0.2,0c-0.6,0.4-1.4,0.5-2,0.9c-1.8,0.6-3.4,1.3-5.1,2.1c-1.1,0.5-2.2,1-3.4,1.3l0,0c-0.5,0.3-0.9,0.4-0.9-0.4
		c0-0.1,0-0.2,0-0.3c0.1-0.5,0.6-0.4,0.8-0.7c0.1-0.1,0.2-0.2,0.3-0.3c0.3-0.7,1.1-0.5,1.6-0.9l0,0c0.5-0.6,1.3-0.3,1.8-0.7
		c0.3-0.1,0.6,0.1,0.8-0.2c0.7-0.8,1.6-1.2,2.6-1c0.7-0.6,1.6-0.4,2.4-0.9c0.6-0.9,1.6-0.5,2.3-1.1c0.1-0.1,0.3-0.1,0.4-0.2
		c0.4,0,0.8-0.3,1.1-0.4c0.7-0.3,1.5-0.1,2.1-0.6c0.3-0.1,0.6-0.1,0.9-0.2c0.1,0,0.2-0.1,0.3-0.1c0.9-0.2,1.7-0.7,2.7-0.6
		c0.3,0,0.6-0.1,0.9-0.1c0.3-0.5,0.7-0.4,1.1-0.3c0.3,0,0.2-0.2,0.3-0.4c0.1-0.1,0.1-0.2,0.3-0.3C121.9,162.9,122.4,162.7,122.8,163
		z"/>
	<path class="st4" d="M149.4,194.4c0.2,0,0.6-0.3,0.6,0.2c0.1,1.5,1.2,1.5,2.2,1.6c2.3,0.3,4.1-1.1,5.9-2.3c2.3-1.5,4.3-3.3,6.4-5.1
		c0.2-0.1,0.3-0.2,0.5-0.1c0.3,0.2,0,0.4-0.1,0.6c-0.4,2.1-2.4,2.6-3.5,4c-0.6,0.8-1.4,1.3-2.1,1.8c-0.6,1.1-1.6,1.6-2.7,2.1
		c-0.4-0.1-0.5,0.4-0.8,0.5c-0.7,0.8-1.6,0.9-2.6,1c-0.6,0-1.3,0-1.9,0c-0.5-0.2-1.2,0.3-1.3-0.6c0-0.2-0.1-0.4-0.1-0.7
		c-0.2-0.1-0.3-0.3-0.4-0.6C149.4,196,149.4,195.2,149.4,194.4z"/>
	<path class="st4" d="M90.1,160.2c0.1-0.6,0.3-0.7,0.7-0.2c0.2,0.3,0.3,0.7,0.4,1.1c0.3,0.2,0.3,0.6,0.4,0.8c0.8,0.8,1.1,2,1.5,3.1
		c0,0.1,0,0.3,0,0.4c-1.1,0.6-0.8,1.7-0.6,2.6c0.4,1.8,0.3,3.6,0.7,5.4c-0.3,1.3,0.6,2.5,0.4,3.8c0.4,0.2,0.4,0.6,0.3,1
		c-0.1,0.5,0.1,1,0.2,1.4c0.1,0.2,0.1,0.4,0.1,0.7c0.4,1.1,0.4,2.3,0.4,3.5c-0.1,0.7,0.5,1.3,0.3,2.1c-0.1,0.3,0,0.8-0.5,0.8
		c-0.6,0-0.4-0.4-0.4-0.8c-0.3-1.8-0.6-3.6-0.9-5.4c-0.3-1.9-0.6-3.9-0.9-5.8c-0.3-1.8-0.5-3.6-1-5.3c-0.4-1.3-0.5-2.6-0.7-3.9
		c-0.2-1-0.4-2.1-0.6-3.1C89.8,161.5,89.5,160.8,90.1,160.2z"/>
	<path class="st6" d="M120,151.5c-0.1-0.2-0.1-0.4-0.2-0.5c-0.6-0.7-0.7-1.7-1.1-2.6c-0.3-1-1.1-1.9-0.4-3.1c0-0.4,0.1-0.9,0.4-1.2
		l0,0c0.1-0.8,0.4-1.3,1.3-1c0.1,0,0.1,0,0.2,0c0.8-0.1,1.6-0.1,2.4,0c0.4,0,0.9,0.1,1.1,0.6c0,0.1,0,0.3,0,0.4
		c0,0.5,0.1,1.1-0.4,1.5c-0.2,0.2-0.3,0.4-0.3,0.7c-0.1,0.1-0.3,0.2-0.5,0.2c-1.3,0.3-1.3,0.3-1.1,1.8c0,0.1,0.1,0.3,0.1,0.4
		c0.7,0.5,0.6,1.3,0.6,2v0.1c0.1,1.2,0.3,2.5-0.9,3.3c-0.1-0.1-0.2-0.1-0.2-0.2C120.3,153.2,120.3,152.3,120,151.5z"/>
	<path class="st3" d="M174.3,190.5c-0.3,0-0.5,0-0.7,0.3c-0.3,0.3-0.8,0.4-1.1,0.7c-0.3,0.5-0.6,0.9-0.9,1.4c0,0.3-0.2,0.4-0.4,0.5
		l0,0c-0.4,0.8-0.9,1.5-1.8,1.9c-0.1,0.2-0.3,0.3-0.4,0.5c-0.4,0.7-1.1,0.9-1.6,1.4c-0.5,0-0.8,0.2-1,0.7c-0.5,0.5-1,0.9-1.7,1
		c-0.1,0.1-0.2,0.2-0.3,0.3c-0.4,0.2-0.8,0.2-1.1,0.4l0,0c-0.6,0.7-1.3,0.6-2,0.6c-0.1,0-0.2-0.1-0.3-0.1c-0.2-0.1-0.4-0.2-0.5-0.4
		c-0.9-1.1-0.7-2.4-0.6-3.8c0.2,0,0.5,0,0.5,0.1c0.2,0.6,0.5,1.2,1.1,1.3c0.9,0.2,1.9,0.2,2.8-0.3c2.4-1.3,4.7-2.8,6.7-4.9
		c0.6-0.6,1.3-1.1,1.9-1.7c0.4-0.8,0.9-1.5,0.4-2.5c-0.2-0.4-0.4-1.4,0.7-1.1C174.4,188,174,189.3,174.3,190.5z"/>
	<path class="st6" d="M113.3,147.4c0,0.2,0,0.3,0,0.5c0,1.1,0.4,2.1,0.3,3.2c-0.1,0.5-0.1,0.9-0.5,1.3c-0.3,0.3-0.3,0.6-0.3,0.9
		c0,0.2-0.1,0.3-0.2,0.4c-0.2,0.1-0.3,0.2-0.5,0c-0.2-0.3-0.1-0.6-0.1-0.9c0-0.7-0.4-1.2-0.5-1.9c-0.3-0.2-0.1-0.5-0.2-0.8
		c-0.4-0.4,0-1-0.4-1.3c-0.3-0.6-0.6-1.2-0.6-1.9l0,0c-0.2-0.6-0.8-1.1-0.5-1.9l0,0c0.1-0.5,0.4-0.9,0.8-1.2
		c0.1-0.3,0.3-0.6,0.5-0.8c0.4-0.2,0.6,0.1,0.8,0.4C112.8,144.7,113.5,145.9,113.3,147.4z"/>
	<path class="st6" d="M140.5,146.3c0.1,0.3-0.1,0.7,0.1,0.9c0.4,0.4,0.4,0.9,0.1,1.4c0,0.7,0,1.4,0,2.1c0.3,0.6,0.1,1.1-0.3,1.6l0,0
		c-0.1,0.2-0.1,0.5-0.2,0.6c-0.2,0.2-0.5,0.3-0.8,0.2c-0.5-0.6-0.2-1.5-0.5-2.2l0,0c-0.5-0.9-0.9-1.8-0.9-2.8c0-0.1,0-0.1-0.1-0.2
		c-0.4-0.4-0.6-1-0.9-1.6c-0.4-1-0.1-1.7,0.9-2.4c0.1,0,0.1-0.1,0.1-0.2c0-0.3,0.2-0.4,0.4-0.5c0.3-0.1,0.4,0.1,0.6,0.3
		c0.7,0.5,1,1.3,1.1,2.1l0,0C140.5,145.7,140.4,146.1,140.5,146.3z"/>
	<path class="st8" d="M86.9,189.6c-0.1-0.1-0.2-0.2-0.3-0.3c0.4-0.7,0.7-1.4,1.2-2.1c0.3-0.4,0.7-1,0.9,0.1c0.3,1.2,1.3,1.8,2.3,1.9
		c0.6,0.1,1.4-0.3,2.1-0.6c0.4-0.2,0.9-0.5,1.3-0.8c-0.2,2.9-3.2,4.5-5.3,2.9c-0.5-0.4-0.6-0.8-0.6-1.4c0-0.3,0.3-0.9-0.3-1
		c-0.4-0.1-0.7,0.3-0.8,0.7C87.2,189.5,87.1,189.6,86.9,189.6z"/>
	<path class="st9" d="M77.1,167c0.1,0.1,0.2,0,0.2-0.2c0.7-0.6,1.6-0.9,2.4-0.9c0.5,0.2,0.8-0.4,1.3-0.3c0.4-0.5,0.9-0.8,1.6-0.6
		l0,0c0.4-0.3,0.9-0.1,1.3-0.5c0.8-0.3,1.6-0.5,2.4-0.8c0.3-0.1,0.4-0.3,0.6-0.5c0.2-0.2,0.5-0.2,0.7,0c0.2,0.2,0.2,0.5,0,0.7
		c-1.1,0.8-2.4,0.9-3.6,1.4c-3.4,1.6-7.1,2.3-10.3,4.1c-0.4,0.2-0.8,0-1.1,0.4c-0.3,0.2-0.6,0.2-0.7-0.2c0.4-1.1,1.3-1.6,2.5-1.5
		c0.4-0.3,0.9-0.7,1.4-0.7c0.4,0.1,0.5-0.3,0.8-0.5C76.6,166.8,76.9,166.9,77.1,167z"/>
	<path class="st10" d="M58.1,182.5c0-0.3,0-0.5,0-0.7c-0.3-0.5,0.1-0.8,0.3-1.2c0.3-0.4-0.3-0.8,0-1.2c0.1-0.2,0.3-0.4,0.5-0.3
		c0.3,0.1,0.3,0.3,0.2,0.6c0.1,1.1-0.4,2.3,0.4,3.3c0.4,0.2,0.7,0.5,0.8,0.9c0.1,0,0.1,0.1,0.2,0c0.4,0.3,0.9,0.4,1.4,0
		c0.3-0.1,0.5-0.4,0.8-0.4c0.9,0.5-0.1,0.7-0.2,1.1c0,0.9-0.7,1.7-1.2,1.8c-1.1,0.2-0.9,0.8-0.8,1.6c0.2,0.6,0.2,1.1-0.6,0.9
		c0-0.1,0-0.1-0.1-0.2c-0.3-1.1-0.2-2.4-1.1-3.3c-0.1-0.4-0.3-0.8-0.4-1.1C58,183.7,57.7,183.2,58.1,182.5z"/>
	<path class="st11" d="M66.2,192.9c0.1,0,0.2,0,0.3,0c-0.1,0.2-0.2,0.4-0.1,0.7c-0.2,1.5-1,2.6-1.6,3.9c-0.3,0.6-0.9,1.1-1.6,0.4
		c-0.2-0.1-0.4-0.2-0.6-0.3c-0.4-0.2-0.8-0.4-0.9-0.9c-0.1-0.3-0.6-0.3-0.5-0.7c-0.6-1.2-1-2.4-1.1-3.8c0-0.3,0-0.6,0-0.9
		c0-0.5,0.2-0.7,0.6-0.4c-0.1,1.1,0.4,2.2,0.8,3.1c0.3,0.7,0.8,1.3,1.7,1.4c1.2,0.2,1.8-0.5,2.3-1.4
		C65.7,193.6,65.8,193.1,66.2,192.9z"/>
	<path class="st8" d="M71.9,197.2c0.3-0.8,0.7-0.9,1.4-0.5c1.3,0.8,1.5,0.8,2.4-0.5c0.2-0.3,0.4-0.6,0.8-0.1
		c0.2,0.3,0.7,0.5,1.2,0.4c0.1,0,0.2,0.1,0.2,0.2c0.1,0.2,0.3,0.4,0.3,0.7c0.1,0.9-0.5,1.2-1.1,1.4l0,0c-0.6,0.3-1.1,0-1.5-0.5
		c-0.1,0-0.1,0-0.2,0c-0.8-0.1-0.9,1-1.6,1.1c-0.3-0.2-0.7,0.1-1-0.2c-0.6,0.1-0.8-0.6-1.3-0.7c-0.3-0.2-0.2-0.5-0.2-0.7
		C71.3,197.4,71.6,197.3,71.9,197.2z"/>
	<path class="st12" d="M131.1,194.5c-0.1,1.4-0.8,2.6-1.4,3.7c-1.6,1.2-2.6,0.9-3.5-0.9c-0.2-0.3-0.5-0.6-0.6-1l0,0
		c-0.4-0.4-0.4-1.2-0.7-1.7c0-0.4,0-0.8,0-1.1c-0.1-0.2,0-0.3,0.2-0.3c0.1,0,0.2,0,0.3,0.1c0.4,0.8,0.6,1.6,1.3,2.2
		c1.1,1.1,2.2,1.1,3.3,0C130.3,195.3,130.6,194.7,131.1,194.5z"/>
	<path class="st13" d="M89.4,178.9c0,0.8-1.3,1.6-2,1.3c-1.4-0.8-1.4-0.8-2.5,0.5c-0.5,0.6-1,0-1.3-0.2c-0.4-0.3-1.2-0.4-0.7-1.4
		c0.4-1,0.9-1.2,1.8-0.8c0.2,0.1,0.4,0.3,0.6,0.4c0.4,0.1,0.9,0.6,1.3-0.4c0.3-0.7,0.8-1.4,1.6-0.3c0.2,0.2,0.6,0.3,0.9,0.4
		C89.2,178.4,89.4,178.5,89.4,178.9z"/>
	<path class="st14" d="M97.6,164.2c0-1.5,0.4-2,1.7-2.1c0.3,0.1,0.7,0.2,0.9,0.5c0,0.1,0,0.1,0.1,0.1c0.6,0.1,0.8,0.7,1.1,1.2
		c0.3,0.6,0.5,1.1,1.1,1.5c0.5,0.3,0.4,0.9,0.2,1.4c-0.2,0.5-0.4,0.6-0.9,0.5c0-0.2,0-0.4-0.3-0.4c-0.4-0.1-0.3-0.6-0.4-0.9
		c0-0.1,0-0.2,0-0.3c-0.6-0.7-1.2-1.5-2.3-1C98.3,164.9,97.8,164.7,97.6,164.2z"/>
	<path class="st15" d="M65.1,165.4c0-0.5,0-1,0-1.5c0.5-1.2,0.5-1.2,1.3-0.8c0.3,0.2,0.5,0.4,0.7,0.6c0.3,0.1,0.2,0.5,0.4,0.6
		c0,0.1,0.1,0.1,0.2,0.1c0.4,0.3,0.3,0.8,0.4,1.2v0c0.3,0.5,0.7,1,0.5,1.7c-0.1,0.3-0.1,0.7-0.5,0.7c-0.4,0-0.4-0.4-0.4-0.7
		c0-0.1-0.1-0.2-0.1-0.3c-0.4-0.4-0.4-1.2-1.1-1.1C66,166.2,65.6,165.6,65.1,165.4z"/>
	<path class="st11" d="M70.8,176.7c0.4-0.2,0.4-0.6,0.7-0.9c0-0.3,0.2-0.4,0.4-0.4c0.3,0.3,0.7,0.6,1,0.8c0.8,0.4,1,1,0.5,1.8
		c-0.5,0.8-1,1-1.7,0.2c-0.3-0.3-0.7-0.4-1-0.6C70.2,177.2,70.6,176.9,70.8,176.7z"/>
	<path class="st11" d="M67.6,176.4c0.1-0.2,0.2-0.4,0.3-0.6c0.8-0.3,1.1,0.4,1.5,0.9c0,0.3,0.3,0.3,0.4,0.2c0.9,0.5,0.1,1,0,1.4
		c-0.3,0.4-0.6,0.8-1.1,0.8c-0.7,0.2-1.2-0.4-1.6-0.8C66.5,177.6,67.4,177,67.6,176.4z"/>
	<path class="st6" d="M70.1,33.2c-0.8,1.3-1.8,2.6-2.4,4c-0.5,1.1-1.1,1.6-2.3,1.3c-0.5-0.1-1.2,0.3-1.4-0.3c-0.2-0.5,0.4-1,0.6-1.4
		c0.3-0.5,0.6-0.9,0.8-1.3c0.2-0.6,0.7-0.9,0.9-1.4c0.8-1.8,2-3.3,3.1-4.9c2.5-3.5,5.3-6.7,8.4-9.7c0.7-0.4,1.3-1,1.8-1.6
		c2.2-2,4.6-3.9,7-5.6c0.3-0.3,0.6-0.3,0.9-0.5c3.1-2.3,6.5-4,9.9-5.7c2.6-1.3,5.4-2.2,8.1-3.2c1.9-0.7,3.8-1.1,5.8-1.5
		c6.6-1.4,13.4-1.6,20.1-1.1c3.9,0.3,7.7,1.1,11.4,2.1c3.4,1,6.8,2.1,10,3.8c0.3,0.1,0.6,0.2,0.9,0.3c0.7,0.4,1.5,0.7,2.2,1.2
		c4.6,2.6,9,5.6,13,9.1c3.8,3.3,7.2,7,10.3,11c0.9,1.2,1.8,2.5,2.7,3.8c0.1,0.2,0.4,0.4,0.2,0.6c-0.1,0.1-0.3,0.1-0.5,0.1
		c-1.7,0.1-3-0.2-4-2c-0.8-1.5-2.1-2.7-3.2-4c-0.1-0.3-0.4-0.5-0.6-0.8l0,0c-0.8-1-1.7-2-2.6-2.8c-0.9-0.9-1.9-1.9-2.9-2.8
		c-0.9-0.8-1.8-1.6-2.8-2.4c-3.2-2.6-6.6-5-10.3-6.9c-3.3-1.7-6.6-3.3-10.1-4.5c-1.3-0.4-2.6-0.9-3.9-1.2
		c-7.1-1.9-14.4-2.5-21.7-1.9c-5.4,0.5-10.7,1.5-15.8,3.5c-2,0.8-4,1.6-6,2.5c-0.5,0.3-1,0.5-1.5,0.7c-2.8,1.5-5.6,3-8.2,4.9
		c-3.9,2.9-7.6,6-11,9.6c-2.3,2.5-4.3,5.1-6.3,7.9C70.6,32.6,70.3,32.9,70.1,33.2z"/>
	<path class="st3" d="M130.5,28.5c-0.8-0.3-1.6-0.6-2.4-0.9c-0.4-0.1-0.7-0.3-0.4-0.9c1.8-3.6,3.6-7.3,5.5-10.9
		c0.1-0.1,0.1-0.3,0.3-0.4c0.3,1.3-0.2,2.5-0.1,3.7c0.1,0.1,0.1,0.3,0,0.4c-0.5,2.1-0.5,4.2-0.8,6.4c-0.1,0.4-0.1,0.9-0.1,1.3
		C132.1,28.8,132.1,28.8,130.5,28.5L130.5,28.5z"/>
	<path class="st3" d="M107.1,43.5c-0.1,0.8-0.3,1.7-0.4,2.5c-0.1,0.5-0.2,0.8-0.7,0.6c-3.8-1.3-7.5-2.5-11.2-3.8
		c0.1-0.5,0.4-0.4,0.6-0.4c3.6-0.3,7.3-0.6,10.9-0.9c0.6-0.1,0.9,0.1,0.8,0.9C107.1,42.8,107.1,43.2,107.1,43.5L107.1,43.5z"/>
	<path class="st3" d="M113.4,31.5c-0.1,0.1-0.1,0.1-0.2,0.2c-0.7,0.4-1.3,1.1-1.8,1.8c-0.7,0.8-1.1,0.8-1.4-0.2
		c-0.3-0.4-0.3-0.9-0.7-1.2c-1.7-2.9-3.5-5.8-5.2-8.7c-0.1-0.3-0.1-0.5,0.3-0.5l0,0c0.3,0.2,0.6,0.5,0.9,0.7c1.4,1,2.8,2.1,4.1,3.1
		l0,0c0.8,0.2,1.3,1,2,1.4c0.7,0.4,1.4,1,2.1,1.5C114.5,30.4,114.5,30.7,113.4,31.5z"/>
	<path class="st3" d="M133.4,29.9c-0.1-0.4,0.2-0.6,0.4-0.9c2.6-2.4,5.2-4.9,7.8-7.3c0.2-0.1,0.4-0.4,0.7-0.2c0.1,0.1,0.1,0.3,0,0.4
		c0,0.1,0,0.3,0,0.4c-0.4,0.9-0.9,1.7-1.2,2.6c-0.1,0.6-0.3,1.2-0.8,1.6l0,0c-0.5,2.2-1.8,3.9-2.6,5.9c-0.3,0.7-0.8,0.5-1.3,0.1
		c-0.8-0.6-1.6-1.4-2.4-2C133.8,30.4,133.5,30.2,133.4,29.9z"/>
	<path class="st3" d="M105.6,38.6c-0.2-0.4-0.5-0.6-0.9-0.7c-2.1-1.7-4.1-3.4-6.1-5.1c-0.1-0.3-0.6-0.4-0.4-0.7
		c0.3-0.4,0.7,0.1,1.1,0.2l0,0c0.8,0.4,1.7,0.5,2.6,0.8c2.4,0.7,4.7,1.5,7.1,2.1c0.7,0.2,0.8,0.5,0.5,1.1c-0.5,1.1-1,2.1-1.5,3.2
		c-0.3,0.6-0.5,0.8-1,0.3C106.5,39.3,106.1,39,105.6,38.6z"/>
	<path class="st3" d="M124.6,19.8c0,0.1,0,0.3,0,0.4c0.6,1.8,1.1,3.6,1.2,5.5c0.2,1.5,0.1,1.6-1.3,1.6c-0.8,0-1.6,0-2.4,0
		c-0.7,0-1-0.4-0.9-1.2c0.1-1.6,0.6-3.1,0.8-4.7c0.2-2.4,0.8-4.7,0.8-7.1c0-0.1,0.1-0.2,0.2-0.3c0.4,0.5,0.3,1.2,0.6,1.7
		C123.9,17.1,124.2,18.5,124.6,19.8z"/>
	<path class="st4" d="M174.1,186.7c-0.8,0.2-0.5,0.8-0.3,1.3c0.4,0.8,0,2.2-0.8,2.3c-0.3-1.6-0.8-3.1-1.4-4.7c-0.9-2.4-2-4.6-2.9-7
		c-0.3-0.8,0.2-1.4,0.5-2.1c0.1-0.2,0.4-0.1,0.4,0.1c0.9,1.8,2.1,3.4,2.8,5.3C173,183.6,173.7,185.1,174.1,186.7z"/>
	<path class="st8" d="M162.4,178.6c0.4,0.4,0.7,0.9,1,1.3c0.3,0.4,0.6,0.5,0.3,1.3c-0.4,0.9,0.6,1.7,1,2.4c1,1.6,0.6,3.2,0.5,4.8
		c-0.7-2.8-2.5-4.9-3.5-7.5C161.4,180,161.4,179.7,162.4,178.6z"/>
	<path class="st13" d="M152.7,189.8c-0.2-0.2,0-0.6-0.3-0.7c0.6-0.4,0.6-1.4,1.4-1.7c0.2,0,0.3,0.1,0.5,0.3c0.9,0.9,2,0.9,3.2,0.9
		c0.3,0,0.9-0.5,1,0.3c0.1,0.7-0.1,1.4-0.6,1.7c-1.3,0.7-3.4,0.5-4-1.2c-0.1-0.3-0.2-0.4-0.4-0.4C152.8,189,153.1,189.7,152.7,189.8
		z"/>
	<path class="st10" d="M139.4,169.6c-0.1-1.7-0.9-2.9-1.9-4.1c-0.2-0.2-0.4-0.4-0.8-0.2c-0.7,0.5-1.1-0.1-1.4-0.6s0.1-1,0.4-1.4
		c0.5-0.5,1-0.4,1.4,0c0.8,0.7,1.4,1.5,1.8,2.5c0.6,0.7,0.8,1.6,1.2,2.4c0,0.1,0,0.1,0.1,0.2c0.2,0.4-0.1,0.6-0.3,0.9l0,0
		C139.9,169.6,139.7,169.9,139.4,169.6z"/>
	<path class="st16" d="M165.1,173c-0.7-0.8-1.5-0.8-2.4-0.9c0.8-1.8,1.2-1.9,2.6-0.9c0.7,0.5,0.5,1.2,0.4,1.8
		c-0.2,1.3-1.7,2.1-2.9,1.8c-0.6-0.2-1.1-1.1-0.8-1.8c0.2-0.5,0.4-0.1,0.7,0C163.5,173.6,164.3,173.6,165.1,173z"/>
	<path class="st11" d="M148.7,182.2c-0.4,0.2-0.3,0.6-0.4,1c0,0.1-0.2,0.1-0.3,0.1c-0.2-0.1-0.3-0.3-0.3-0.5c-0.2-1.2-0.6-2.2-1.4-3
		c-0.3-0.3-0.5-0.9-0.9,0c-0.2,0.4-1-0.2-1.5-0.4c-0.4-0.1-0.5-0.4-0.1-0.8c0.4-0.5,0.3-1.7,1.3-1.3c0.6,0.2,1.1,0.7,1.5,1.3
		c0.8,1,0.6,2.6,1.9,3.3C148.7,182,148.7,182.1,148.7,182.2z"/>
	<path class="st17" d="M178,168.6c-0.1,0.9-0.7,1.3-1.2,1.4c-2.3,0.7-4.6,1.4-6.8,2.3c-0.2,0.1-0.4,0.4-0.5,0
		c-0.1-0.3,0-0.5,0.3-0.7c1.4-0.8,2.9-1.4,4.5-1.9C175.4,169.4,176.7,168.9,178,168.6z"/>
	<path class="st18" d="M115.3,176c-0.1,0.3-0.2,0.4-0.5,0.5c-0.1,0.1-0.3,0.1-0.4,0c-0.2,0-0.4,0-0.6-0.1c-0.4-0.1-0.6-0.3-0.7-0.7
		c-0.1-0.2-0.2-0.4-0.3-0.7c0.2-0.6-0.2-1.2-0.2-1.8c0-0.4-0.1-0.8,0.3-1.4c0.2,0.9,0.7,1.5,0.6,2.3c0,0.6,0.3,0.9,0.8,1
		c0.2,0.1,0.4,0.1,0.6-0.1c0.2-0.2,0.2-0.7,0.1-0.8c-0.6-0.4-0.2-1.2-0.6-1.7c-0.1-0.1,0-0.4,0.1-0.5c0.2-0.2,0.4,0.1,0.5,0.3
		c0.5,0.7,0.7,1.6,0.7,2.5C116,175.3,115.4,175.5,115.3,176z"/>
	<path class="st14" d="M133.1,182.1c0.2,0,1.6,1.1,1.7,1.3c0,0.4-0.9,1.8-1.2,1.7c-0.7-0.2-1.3-0.6-1.8-1.1
		C131.6,183.8,132.8,182.2,133.1,182.1z"/>
	<path class="st11" d="M135.5,183.3c0.5-0.4,0.3-1.5,1.3-1.4c0.5,0,1.8,1.2,1.6,1.4c-0.4,0.6-0.8,1.1-1.4,1.4
		C136.8,184.7,135.5,183.6,135.5,183.3z"/>
	<path class="st19" d="M143.8,164.2c-0.7-0.3-1.3-1.1-2.2-0.8c-0.3,0.1-0.1-0.4-0.1-0.6c0.1-0.2,0.3-0.3,0.4-0.5
		c0.1-0.6,0.3-0.8,0.8-0.4c0.1,0.3,0.4,0.3,0.6,0.3c0.4,0.3,1.1,0.5,0.9,1.3C144.2,163.8,143.9,163.9,143.8,164.2z"/>
	<path class="st20" d="M152.5,177.6c-0.1,0.2-0.3,0.4-0.4,0.6c-0.2,0.2-0.3-0.1-0.5-0.2c-0.5-0.3-1-1.2-1.8-0.5
		c-0.1,0.1-0.3-0.1-0.3-0.2c0.2-0.5,0.5-0.9,1-1.3c0.4-0.3,0.5-0.1,0.8,0.2C151.6,176.6,152.2,176.9,152.5,177.6z"/>
	<path class="st21" d="M121.5,173.9c-0.4,0.4-0.4,1.2-1.2,0.8c-0.6-0.3-0.8-0.8-1.1-1.3c-0.1-0.2-0.1-0.5,0.1-0.6
		c0.2-0.2,0.5-0.3,0.7,0C120.3,173.4,121.2,173.1,121.5,173.9z"/>
	<path class="st22" d="M112.8,175c0.2,0.1,0.4,0.3,0.5,0.5c-0.3,0.3-0.6,0.6-0.9,0.9l0,0c-1,0.7-1.3,0.7-1.7-0.2
		c-0.1-0.1-0.1-0.1-0.2-0.2c0-0.2,0-0.5,0-0.7c0-0.2,0-0.5,0.2-0.6c0.3-0.1,0.4,0.2,0.4,0.4c0.1,0.4,0.4,0.4,0.7,0.3
		C112.1,175.5,112.4,174.8,112.8,175z"/>
	<path class="st23" d="M158.2,184.4c0.8,1.2,0.7,2.4,0.4,3.6C158,186.9,157,185.8,158.2,184.4z"/>
	<path class="st24" d="M178,181.9c-0.8,1.4-1.1,1.6-1.7,0.9c-0.6-0.6-0.3-1.3-0.2-1.9c0-0.3,0.5-0.1,0.5,0
		C176.5,182,177.2,182,178,181.9z"/>
	<path class="st25" d="M131.6,193.8c0,0.4,0.1,0.8-0.4,0.7C130.9,194.1,130.9,193.7,131.6,193.8z"/>
	<path class="st6" d="M166.6,48c-1.3,0.8-2.4,2-3.6,3.1c-2.8,2.6-5.6,5.3-8,8.4c-0.5,0.7-1.2,1.2-1.6,2c-1.8,1.8-3.2,4-4.7,6.1
		c-1.6,2.3-3.3,4.6-4.6,7c-1.6,2.9-3.4,5.8-4.7,8.9c-0.2,0.5-0.5,1.1-0.8,1.6c-0.1,0.4-0.4,0.8-0.6,1.2c-0.6,2-1.6,3.8-2.4,5.7
		c-1,2.5-2.1,5.1-2.9,7.7c-0.5,1.6-1.2,3.2-1.8,4.9c-0.8,2.6-1.6,5.1-2.4,7.7c-0.5,1.9-1,3.7-1.5,5.6c-0.4,1.4-0.6,2.9-0.9,4.3
		c-0.2,0.9-0.4,1.8-0.6,2.7c-0.2,0.4-0.1,0.8-0.1,1.1c0,0.3,0,0.7-0.4,0.8c-0.4,0.1-0.4-0.4-0.5-0.6c-0.1-0.2-0.1-0.4-0.1-0.6
		c-0.3-2.3-0.7-4.6-0.8-6.9c0.4-1-0.1-2-0.3-2.9c-0.5-3-1.1-6-1.8-8.9c-0.6-2.6-1.4-5.2-2.1-7.8c-0.3-0.4-0.3-1-0.4-1.4
		c-1.1-4.1-2.9-7.9-4.3-11.9c-0.9-2.3-2.1-4.4-3-6.7c-1.1-2.5-2.5-4.8-3.9-7.1c-1.8-2.9-3.8-5.8-5.9-8.6c-2.1-2.7-4.3-5.2-6.6-7.6
		c-2.7-2.8-5.6-5.3-8.6-7.5c-0.2-0.1-0.5-0.2-0.7-0.3c-0.4-0.8-1.4-0.6-1.8-1.4c-0.3-0.2-0.6-0.5-0.9-0.7l0,0
		c-0.1-0.1-0.3-0.3-0.2-0.4c0.1-0.2,0.3-0.2,0.4-0.1l0,0c1.3,0.4,2.6,1,3.9,1.4c2.9,1.1,5.6,2.7,8.3,4.3c1.8,1.3,3.5,2.6,5.2,3.8
		c2,1.4,3.9,3,5.8,4.7c3.3,3,6.5,6.3,9.4,9.7c1.4,1.7,2.9,3.4,4.3,5.2c2.1,2.6,4.8,3,7.7,2.3c1.6-0.4,3-1.7,4.3-3
		c2.5-2.5,4.7-5.3,6.9-8.2c2.5-3.3,5-6.6,7.6-9.9c1.8-2.3,3.9-4.3,5.8-6.6c0.3-0.8,1-1.2,1.5-1.6c1.2-0.9,2.1-2.1,3.4-3
		c0.8-0.6,1.7-1.2,2.6-1.7l0,0c0.3-0.7,0.9-0.9,1.5-1.2l0-0.1l0,0.1c0.5-0.6,1-0.9,1.7-1.1c0.9-0.3,1.8-0.8,2.6-1.3
		c1.5-0.9,3.2-1.5,4.8-2.1c1.3-0.4,2.7-1.1,4.1-0.9c0.4,0.1,0.8-0.3,1.1-0.3c0.3,0.1,0.7,0.1,1,0c2.8-0.4,5.6,0.1,8.5,0
		c1.1,0.1,2.1,0.3,3.2,0.4c1.4,0.3,2.8,0.9,4.6,0.8c-0.6,0.5-1,0.3-1.4,0.4c-0.9,0.2-1.8,0.1-2.7,0.1c0,0-0.1,0-0.1,0
		c-0.1,0.1,0,0.1,0.1,0.2c-1.3,0.1-2.5,0.6-3.8,0.9c-2.1,0.3-4,0.9-5.9,1.9c-3,0.9-5.8,2.6-8.5,4.3C169.4,45.6,168,46.8,166.6,48z"
		/>
	<path class="st3" d="M130.3,30.1c2.5,1.1,4.6,2.8,6.5,5c1.3,0.9,1.8,2.4,2.4,3.7c0.6,1.2,1,2.5,1.1,3.9c0,0.2-0.1,0.5,0,0.7
		c0.6,1.8-0.1,2.9-1.5,4c-4.4,3.6-8.7,7.3-13.1,10.9c-0.5,0.4-0.8,0.5-1.4,0.1c-5-3.4-9.9-6.8-14.9-10.2c-0.8-0.5-1.1-1.1-1-2.1
		c0.2-6,2.5-10.6,7-14.1c0.2-0.2,0.4-0.3,0.6-0.5c1.1-1.2,2.5-1.8,3.9-2.1c2.9-0.6,5.8-1,8.8-0.1C129.1,29.6,129.8,29.6,130.3,30.1z
		"/>
	<path class="st3" d="M139.4,36.5c-0.3-0.6-0.7-1.3-1.1-1.9c-0.3-0.5-0.3-0.8,0.3-1c2.9-1.2,5.9-2.4,8.8-3.7
		c0.4-0.2,0.8-0.3,1.2-0.5c0.3-0.2,0.6-0.3,0.8,0.1c0,0.1,0,0.3-0.1,0.3l0,0c-0.9,1-1.8,2.1-2.9,2.8c-0.1,0.1-0.1,0.1-0.2,0.1
		c-0.9,1.1-1.8,2.3-3.1,3.2l0,0c-0.4,0.9-1.3,1.4-1.9,2.1c-0.5,0.6-1.1,0.6-1.5-0.2C139.7,37.4,139.3,37.1,139.4,36.5z"/>
	<path class="st6" d="M114.6,130.7c-0.6-0.9-1.5-1.3-2.2-2.1c-1.9-1.6-4-2.7-6.1-4.1c-0.1,0-0.3-0.1-0.4-0.2
		c-0.3-0.5-0.9-0.4-1.3-0.8c-1.4-0.4-2.4-1.4-3.7-2.1c-1.8-0.9-3.6-1.7-5.5-2.4c-0.1-0.1-0.3-0.1-0.4-0.3c-0.9-0.4-1.7-0.8-2.6-1.1
		c-1.2-0.4-2.4-0.9-3.6-1.4h0c-3-0.8-6-1.8-9.1-2.5c-1.7-0.4-3.4-0.8-5.2-0.9c-1.5-0.1-3-0.6-4.6-0.8c-3.2-0.5-6.3-0.9-9.6-1.1
		c-1.4-0.1-2.8-0.6-4.3-0.5c-0.6,0-0.8-0.6-1-1.1c-0.4-1.9-0.8-3.9-1.1-5.9c0-0.1-0.1-0.2-0.1-0.3v0c-0.5-2.3-0.9-4.5-1.4-6.8
		c-0.4-2.1-0.8-4.2-1.3-6.2c-0.8-2.9-1.3-6-1.9-8.9c-0.9-4-1.6-8.1-2.5-12.1c-0.5-2.2-0.9-4.4-1.3-6.6c-0.1-0.5-0.2-1.1,0.2-1.6
		c2.1-0.4,4.2-0.1,6.3,0c0.1,0,0.1,0,0.2,0c2.1,0.2,2.2,0.4,2.6,2.7c0.4,2.1,0.8,4.1,1.1,6.2c0.3,1.6,0.7,3.2,0.9,4.8
		c0.3,2.3,0.9,4.5,1.3,6.7c0.5,2.3,0.9,4.6,1.4,7c0.1,0.4,0.2,0.8,0.3,1.1c0.2,0.8,0.2,1.7,0.5,2.6c0.1,0.1,0.1,0.2,0.1,0.3
		c0.1,2,0.8,3.9,1.1,6c0.1,0.7,0.3,1.3,0.8,1.7c1.6,0.5,3.3,0.6,4.9,1.1c3.1,0.9,6.3,1.2,9.3,2.3c0.7,0.3,1.5,0.1,2.2,0.5
		c0.9,0.5,2,0.5,2.9,1c4.1,1.3,8.1,3.1,12.2,4.7c1.4,1,3.1,1.5,4.6,2.4c3.4,1.9,6.8,3.9,9.8,6.4c2.1,1.7,4.2,3.6,6.1,5.6
		c0.6,0.9,1.4,1.8,2.2,2.6c0.4,0.5,0.8,0.9,1.2,1.4c0.2,0.4,0.4,0.8,0.6,1.1c1.1,1.9,2.4,3.7,3.3,5.6c0.4,0.9,0.6,1.9,1.2,2.7v0
		c0,0.1,0.1,0.3,0.2,0.4c0.1,0.3,0.1,0.6-0.3,0.8c-0.3,0.1-0.4-0.2-0.6-0.4c-0.7-1.1-1.6-2.1-2.4-3.1c-0.2-0.3-0.5-0.4-0.7-0.6
		c-0.8-0.6-1.3-1.6-2.1-2.1C116.1,132.1,115.4,131.3,114.6,130.7z"/>
	<path class="st3" d="M159.9,63.9c0.2-0.2,0.4-0.3,0.6-0.5c0.6-0.3,1.1-0.9,1.6-1.4c1.8-1.3,3.6-2.8,5.5-4c2.4-1.6,5-3,7.6-4.2
		c0.1-0.1,0.3-0.2,0.4-0.3c0.4-0.6,1.2-0.3,1.7-0.8c1.7-0.6,3.3-1.3,5.1-1.9c2-0.6,4-1.1,6-1.7c0.6-0.2,1.2-0.2,1.8-0.3
		c2.4-0.3,4.8-0.8,7.2-0.7c2.1,0.1,1.7,0.1,1.6,1.9c-0.9,4-1.6,8-2.4,12c-0.1,0.5-0.3,0.9-0.4,1.4c-0.4,1.6-0.8,3.3-1.1,5
		c-0.6,3.1-1.3,6.1-1.7,9.2c-0.3,1.8-0.8,3.6-1,5.5c-0.3,2.5-1.3,4.9-1.4,7.4c-0.1,0.5-0.2,1-0.3,1.5c-0.3,1.8-0.8,3.6-0.9,5.5
		c-0.1,0.8-0.4,1.2-1.1,1.4c-1,0.3-2.1,0.4-3.1,0.4c-2.3,0-4.5,0.6-6.8,0.9c-1.8,0.3-3.7,0.8-5.5,1.2c-3.4,0.8-6.6,1.9-9.8,3.1
		c-5.7,2.1-11,5-16.1,8.5c-0.4,0.1-0.8,0.2-1.2,0.6c-0.1,0.1-0.1,0.1-0.2,0.2c-0.7,0.5-1.4,0.9-1.9,1.6c-0.3,0.4-0.7,0.7-1.2,0.9
		c-0.5,0.2-0.8,0.6-1.1,1c-1.9,1.6-3.6,3.4-5.5,5.1c-0.5,0.1-0.8,0.5-1.2,0.9c-0.4,0.5-1,0.9-1.4,1.6c-1.3,1.6-2.6,3.3-3.9,5
		c-0.7,0.8-1.2,1.7-1.8,2.6c-0.1,0.1-0.1,0.2-0.2,0.3c-0.6-0.1-0.3-0.6-0.3-0.9c0.2-1.7,0.6-3.3,0.8-5c0.3-1.7,0.9-3.4,0.9-5.1
		c0-0.1,0.1-0.3,0.1-0.4c0.6-1.8,1.1-3.6,1.5-5.4c0.6-2,1.4-4.1,1.9-6.1c0.2-0.8,0.5-1.7,0.7-2.5c0.5-2,1.3-3.9,1.9-5.8
		c0.8-1.6,1.5-3.3,2-5c0.2-0.6,0.4-1.1,0.6-1.6v0c0.4-1.1,1-2.1,1.4-3.1c0.6-0.7,0.7-1.6,1.2-2.3c0.1-0.2,0.1-0.4,0.2-0.5
		c1.2-2.2,2.3-4.5,3.6-6.6c0.3-0.5,0.6-0.9,1-1.4l0,0c0.6-1.3,1.5-2.5,2.4-3.6c1.5-1.9,2.9-3.8,4.4-5.7
		C154.8,68.8,157.4,66.3,159.9,63.9z"/>
	<path class="st26" d="M138.1,86.2c0-0.5,0.4-0.8,0.6-1.2C138.9,85.7,138.4,85.9,138.1,86.2z"/>
	<path class="st27" d="M101.7,187c-0.8,0.2-1.4,0.1-2-0.3C100.3,185.8,100.7,185.9,101.7,187z"/>
	<path class="st6" d="M199.3,65.7c0.3-1.8,0.3-1.8,2.1-1.7c1.9,0.1,3.8,0.1,5.6,0.1c0.8,0,1,0.3,0.8,1.1c-0.7,2.9-1.3,5.7-2,8.6l0,0
		c-0.5,3.1-1.3,6.2-2,9.2c-0.4,1.8-0.7,3.6-1.2,5.5c-0.9,3.5-1.7,7.1-2.5,10.6c-0.5,1.9-0.9,3.9-1.3,5.9c-0.6,2.4-1.1,4.7-1.6,7.1
		c-0.1,0.8-0.6,1.1-1.3,1.2c-3.2,0.1-6.4,0.5-9.6,0.5c-1.6,0-3.2,0.7-4.8,0.7c-2,0-3.9,0.4-5.9,0.8c-1.9,0.4-3.8,0.9-5.6,1.3
		c-2.4,0.6-4.9,1.2-7.3,1.9c-1.3,0.4-2.4,1.2-3.8,1l0,0c-0.2,0.3-0.4,0.5-0.8,0.6c-1.8,0.4-3.3,1.4-5.1,2c-1.5,0.5-2.8,1.4-4.2,1.9
		c-4.9,2.4-9.3,5.5-13.4,9.2c-0.8,0.8-1.6,1.6-2.4,2.4c-0.2,0.2-0.4,0.5-0.7,0.7l0,0c-0.2,0.3-0.4,0.6-0.7,0.6c-1,1.2-2,2.4-2.9,3.7
		c-0.2,0.3-0.3,0.3-0.6-0.1l0,0c0.4-1.1,1.1-2.1,1.3-3.3c0.8-1.6,1.6-3.2,2.6-4.7c0.4-0.8,1.2-1.4,1.6-2.3c0.9-1,1.8-2,2.6-3.1
		c0.6-0.6,1.1-1.2,1.6-1.8c0.5-0.3,0.8-0.8,1.2-1.1c1.8-1.6,3.6-3.1,5.5-4.6c0.4-0.8,1.2-1.1,1.9-1.5c3.4-2.1,6.8-4.2,10.4-5.7
		c0.1-0.1,0.2-0.1,0.3-0.1c0.5-0.2,1-0.4,1.5-0.7c1.3-0.5,2.6-1,3.9-1.6c0.5-0.4,1.2-0.3,1.7-0.7c0.1-0.1,0.2-0.1,0.3-0.2
		c2-0.4,3.9-1.4,6-1.8c0.5-0.1,0.9-0.4,1.3-0.6c1.7-0.2,3.3-0.8,5-1.2c1.6-0.3,3.1-0.8,4.8-1.1c1.9-0.4,3.9-0.6,5.8-1.2
		c0.7-0.2,1.4-0.3,2-0.3c0.9-0.1,1.4-0.4,1.7-1.3c0.6-2.2,1.2-4.5,1.5-6.7c0.4-0.9,0.3-2,0.8-2.9c0.8-3,1.4-6.1,2.1-9.2
		c0.1-0.5,0.3-1,0.3-1.5c0.5-1.7,0.8-3.4,1.2-5.1c0.3-1.3,0.5-2.5,0.9-3.7c0.4-0.3,0.3-0.9,0.4-1.3C198.3,69.3,199,67.6,199.3,65.7z
		"/>
	<path class="st28" d="M143.3,197.6c1.1,0.3,0.1,0.7,0,1l0,0c-0.6,0.2-1.2,0.5-1.8-0.2c-0.1,0-0.3-0.1-0.4-0.1
		c-0.4-0.1-0.7,0.2-1,0.2c-0.4,0.1-0.9,0.1-0.8-0.7c0.9-0.6,1.8-1,2.9-0.3C142.5,197.7,143,197.6,143.3,197.6z"/>
	<path class="st29" d="M136.2,200.5c-0.3,0-0.6,0-0.9,0c0.6-0.3,1.1-0.6,1.7-0.9c0.1,0,0.2,0.1,0.2,0.2
		C137.1,200.3,136.7,200.5,136.2,200.5z"/>
	<path class="st30" d="M137.2,199.7c-0.1-0.1-0.1-0.1-0.2-0.2c0.4-0.2,0.5-0.9,1.1-0.7c0.1,0.1,0.1,0.3,0,0.4c0,0.1,0,0.1,0,0.2
		C137.8,199.7,137.5,199.8,137.2,199.7z"/>
	<path class="st31" d="M138.1,199.3c0-0.1,0-0.3,0-0.4c0.2-0.3,0.4-0.5,0.7-0.8c0.2,0,0.4-0.1,0.4,0.1c0.1,0.3-0.2,0.4-0.3,0.6
		C138.7,198.9,138.4,199.1,138.1,199.3z"/>
	<path class="st32" d="M146.8,195.7c0.1,0.3,0.1,0.5-0.2,0.7c-0.1-0.2-0.3-0.2-0.5-0.3C146.4,196,146.6,195.9,146.8,195.7z"/>
	<path class="st3" d="M117.6,101.8c0.9,3.1,1.9,6.1,2.8,9.2c0.5,2.2,1,4.5,1.5,6.7c0.8,3.2,1.4,6.4,1.9,9.6c0.1,0.3,0.2,0.6,0.3,0.9
		c0.4,1.1,0.2,2.4,0.7,3.5c-0.1,0.9,0.1,1.9,0.2,2.8c0.1,0.8-0.1,0.9-0.7,0.8l-0.1,0h-0.1c-1.7-2.3-3.1-4.9-5.1-7
		c-0.1-0.1-0.2-0.2-0.3-0.4c-0.1-0.2-0.3-0.4-0.4-0.7c-0.1-0.1-0.1-0.2-0.2-0.3c-0.6-0.8-1.1-1.6-1.8-2.1c-0.4-0.5-0.9-0.9-1.3-1.4
		c-0.5-0.5-0.9-1-1.4-1.5c-0.3-0.4-0.6-0.6-0.9-0.9c-0.5-0.6-1.1-1.1-1.6-1.5c-0.1-0.1-0.2-0.1-0.2-0.2c-1.7-1.8-3.6-3.1-5.5-4.6
		c-2.1-1.5-4.2-2.8-6.3-4.3c-1.3-1-2.6-1.8-4.1-2.3c-1.6-0.7-3.1-1.5-4.6-2.2c-3.7-1.7-7.5-2.9-11.4-4c-4.1-1-8.3-2-12.5-2.4
		c-0.3-0.1-0.7-0.3-1-0.4c-0.6-0.2-0.9-0.6-0.9-1.3c-0.3-2.6-0.8-5.2-1-7.8c0-0.2-0.2-0.4-0.2-0.7c-0.3-2.1-0.6-4.2-0.9-6.3
		c-0.1-0.7,0-1.3-0.2-1.9c-0.8-5-1.6-10-2.3-15c-0.5-3.1-0.9-6.2-1.4-9.3c-0.3-2.1-0.7-4.1-1-6.2c0-0.2-0.1-0.4-0.1-0.6
		c-0.3-1.9-0.2-2,1.6-1.9c3.3,0.1,6.4,0.9,9.6,1.7c1.6,0.4,3.2,1,4.8,1.5c1.6,0.5,3,1.3,4.6,1.8c0.8-0.1,1.2,0.8,1.9,0.9
		c0.4,0.2,0.7,0.4,1.1,0.7c3.3,1.8,6.5,3.7,9.4,6.2c0.8,0.6,1.6,1.2,2.3,1.8c0.3,0.1,0.4,0.5,0.6,0.7c1.9,1.5,3.6,3.3,5.2,5.1
		c0.6,0.6,1.1,1.2,1.7,1.8c0.8,1.4,2.1,2.4,2.9,3.7c0.3,0.6,0.7,1.1,1.1,1.6c1.3,1.5,2.2,3.2,3.3,4.8c1.4,2.2,2.8,4.5,3.9,6.9
		c0.4,0.9,0.7,1.9,1.3,2.6c1.5,3.1,2.9,6.2,4,9.5C116.8,100.3,117.3,101,117.6,101.8z"/>
	<path class="st33" d="M102.8,162.3c0-0.2,0-0.4,0-0.7c0.4-0.3,0.5-1.3,1.3-0.9c0.7,0.4,1.3,0.9,0.9,2
		C104.3,162.4,103.5,162.4,102.8,162.3z"/>
	<path class="st3" d="M153.5,39.8c-3.6,1.6-7.1,3.3-10.7,4.9c-0.5,0.3-0.8,0.1-0.9-0.5c-0.2-1.2-0.4-2.4-0.7-3.6
		c-0.1-0.6-0.1-0.9,0.6-0.9c3.8-0.1,7.5-0.1,11.3-0.2c0.1,0,0.3,0.1,0.4,0.1C153.5,39.7,153.5,39.8,153.5,39.8z"/>
	<path class="st3" d="M113.7,21.5c-0.2-1.4-0.3-2.8-0.9-4c-0.1-0.3-0.2-0.5,0-0.9c1.2,1.4,1.9,3.2,3,4.5c1,2,2.3,3.8,3.5,5.8
		c0.4,0.7,0.4,1.1-0.3,1.4c-1,0.4-2,0.9-3,1.4c-0.3,0.1-0.7,0.3-1-0.1c-0.1-0.1-0.2-0.3,0-0.4c-0.1-0.8-0.3-1.6-0.4-2.4
		C114.3,24.9,114,23.2,113.7,21.5z"/>
	<path class="st27" d="M130,147.1c-0.8,0.2-1.4,0.1-2-0.3C128.6,145.9,129,146,130,147.1z"/>
	<path class="st34" d="M80.7,196.3c0.4-0.9,0.8-0.7,1.4-0.1s0.9,1.5,1.4,2.2c0.4,0.6,0.8,1.1,0.4,1.9c-0.8,0.3-0.5-0.6-0.9-0.8
		c0.1-0.6-0.4-0.8-0.6-1.1c-0.4-0.2-0.8-0.3-0.8-0.9c-0.2-0.6-0.8-0.4-1.1-0.7C80.5,196.6,80.5,196.4,80.7,196.3z"/>
	<path class="st35" d="M117.7,198.2c-0.6,0.2-1.1,0.5-1.8,0.6c-0.6,0.1-1.2-0.1-1.5-0.7c-0.7-0.4-1.2,0.6-1.8,0.3
		c-0.1-0.2,0-0.4,0-0.5c0.7-0.6,1.4-1,2.3-0.9c1.2,0.1,2.3,0.4,3.5,0c0,0,0.1,0.1,0.1,0.1c0.1,0.2,0.1,0.4-0.2,0.5l0,0
		C118.2,198,117.9,198,117.7,198.2z"/>
	<path class="st19" d="M118.3,197c-0.3-0.7-0.6-1.2-1.3-0.5c-0.1,0.1-0.5,0.1-0.6-0.1c-0.1-0.3,0.1-0.4,0.3-0.6
		c0.7-0.6,1.3-1.2,2.3-0.7C119.5,196.3,119.3,196.7,118.3,197L118.3,197z"/>
	<path class="st19" d="M105.4,199.5c-0.4,0.1-0.3,0.4-0.4,0.7c-0.1,0-0.1,0-0.2,0.1c-0.7,0.4-0.8-0.3-1.1-0.7
		c-0.1-0.1-0.1-0.1-0.2-0.1c0,0-0.1-0.1-0.1-0.1c-0.1-0.6-0.4-1.5,0.1-1.7c0.7-0.3,1.2,0.6,1.7,1.1
		C105.5,199,105.4,199.3,105.4,199.5z"/>
	<path class="st36" d="M110.1,200.5c-0.5,0.3-1,0.7-1.5,1c-0.1,0-0.2,0.1-0.3,0.1c-0.3,0.1-0.6,0.2-0.8,0c-0.1-0.1-0.1-0.3,0-0.4
		c0.7-0.3,1.4-0.7,2-1.2C109.7,200,110.1,200,110.1,200.5z"/>
	<path class="st37" d="M112.7,198.3c-0.2,0-0.2,0.2-0.2,0.3c-0.3,0.1-0.4,0.6-0.8,0.4c-0.2-0.1-0.1-0.4,0-0.6c0.3-0.3,0.8-0.2,1-0.6
		C112.6,198,112.7,198.2,112.7,198.3z"/>
	<path class="st38" d="M111.4,198.8c0,0.7-0.2,1.1-0.9,0.7C110.7,199.2,110.9,198.8,111.4,198.8z"/>
	<path class="st39" d="M107.4,201.3c0,0.1,0,0.3,0,0.4c-0.3,0.1-0.2,0.6-0.6,0.5c-0.4-0.1-0.2-0.4-0.2-0.7
		C106.9,201.5,107.2,201.5,107.4,201.3z"/>
	<path class="st40" d="M105.7,202.4c0.1-0.3,0.2-0.5,0.5-0.4c0.2,0.1,0.3,0.2,0.2,0.4C106.1,202.3,105.9,202.7,105.7,202.4z"/>
	<path class="st19" d="M81.5,170.2c0.5-0.2,0.6,0.2,0.6,0.6c0,0.7,0.3,1,1,1.1c0.3,0,0.6-0.2,0.7,0.3c0,0.1-0.1,0.4-0.3,0.5
		c-0.3,0.3-0.6,0.2-0.9,0.1C81.6,172.1,81.5,171.2,81.5,170.2L81.5,170.2z"/>
	<path class="st41" d="M79.3,171.6c0.6,0.2,1,0.8,1.7,0.6c0.1,0,0.3,0.1,0.3,0.3c0.1,0.3-0.2,0.3-0.3,0.3c-0.4,0.3-0.9,0.8-1.4,0.3
		C79.1,172.7,79,172.2,79.3,171.6z"/>
	<path class="st42" d="M83.5,169.2c0,0,0,0.1,0.1,0.1c0.3,0.3,0.4,0.6,0.3,1c0,0.1-0.2,0.2-0.3,0.1c-0.4-0.3-0.1-0.7-0.2-1.1
		C83.3,169.3,83.4,169.2,83.5,169.2z"/>
	<path class="st43" d="M81.5,170.2c-0.1-0.1-0.2-0.2-0.3-0.4c-0.1-0.2-0.1-0.4,0-0.5c0.1-0.1,0.3-0.1,0.4,0c0.2,0.1,0.1,0.3,0.1,0.5
		C81.7,169.9,81.6,170.1,81.5,170.2C81.5,170.2,81.5,170.2,81.5,170.2z"/>
	<path class="st44" d="M83.5,169.2c-0.1,0.1-0.1,0.1-0.1,0.2c-0.3,0-0.4,0-0.4-0.3c0-0.2,0.1-0.4,0.3-0.3
		C83.5,168.8,83.6,168.9,83.5,169.2z"/>
	<path class="st17" d="M101.6,178.5c-0.1,0.1-0.1,0.3-0.2,0.4c-0.3,1-0.9,1.1-1.7,0.4l0,0c-0.6-0.5-1-1.1-0.6-2
		c0.2-0.6,0.5-0.6,0.8-0.1c0,0.1,0,0.1,0,0.2C100.3,178.1,101,178.2,101.6,178.5z"/>
	<path class="st15" d="M65.1,165.4c0-0.5,0-1,0-1.5c0.5-1.2,0.5-1.2,1.3-0.8c0.3,0.2,0.5,0.4,0.7,0.6c0.3,0.1,0.2,0.5,0.4,0.6
		c0,0.1,0.1,0.1,0.2,0.1c0.4,0.3,0.3,0.8,0.4,1.2v0c0.3,0.5,0.7,1,0.5,1.7c-0.1,0.3-0.1,0.7-0.5,0.7c-0.4,0-0.4-0.4-0.4-0.7
		c0-0.1-0.1-0.2-0.1-0.3c-0.4-0.4-0.4-1.2-1.1-1.1C66,166.2,65.6,165.7,65.1,165.4z"/>
	<path class="st45" d="M68.8,169.6c-0.3,0.1-0.6,0-0.7-0.4c0-0.2,0-0.5,0-0.7c0.4-0.3,0.7-0.4,1.1,0c0,0.1,0,0.1,0,0.2
		C69.1,168.9,69.1,169.4,68.8,169.6L68.8,169.6z"/>
	<path class="st18" d="M153.9,162.2c-0.3-0.3-0.6-0.5-0.8-0.8c0.3-0.4,0.1-0.4-0.2-0.5c-0.4-0.2-0.5-0.6-0.5-0.9c0-0.7,0.5-1,1-0.6
		c0.4,0.3,0.9,0.6,0.9,1.2c0,0.7,0.4,1.3,0.8,1.9c0.6,0.4,0.2,1.1,0.3,1.6c-0.1,0.3-0.2,0.4-0.5,0.4
		C154.3,163.7,154.1,163,153.9,162.2z"/>
	<path class="st46" d="M154.9,165.2c0.1-0.3,0.1-0.7-0.1-0.9c0.2,0,0.3-0.1,0.4-0.3c0.1,0.1,0.3,0.3,0.4,0.4c0,0.1,0,0.1,0.1,0.2
		c0.1,0.1,0.1,0.1,0.1,0.2c0,0.1,0,0.1-0.1,0.1c0,0.2,0,0.3,0,0.5c-0.1,0.6-0.4,0.6-0.7,0.2C155,165.4,155,165.3,154.9,165.2z"/>
	<path class="st47" d="M188.9,185.8c0-0.6,0-1.1,0.5-1.4c0.1,0,0.3,0,0.4,0c0.1,0.3-0.3,0.6-0.2,0.9c0.1,0.3,0.3,0.6-0.3,0.7
		C189.2,186.1,189,186.1,188.9,185.8z"/>
</g>
</svg>
